<?xml version="1.0" encoding="utf-8"?>
<!-- Generator: Adobe Illustrator 20.0.0, SVG Export Plug-In . SVG Version: 6.00 Build 0)  -->
<svg version="1.1" id="Layer_1" xmlns="http://www.w3.org/2000/svg" xmlns:xlink="http://www.w3.org/1999/xlink" x="0px" y="0px"
	 viewBox="0 0 71.3 71.3" style="enable-background:new 0 0 71.3 71.3;" xml:space="preserve">
<style type="text/css">
	
</style>
<path class="st0" d="M57.3,0H14C6.3,0,0,6.3,0,14v43.3c0,7.7,6.3,14,14,14h43.3c7.7,0,14-6.3,14-14V14C71.3,6.3,65,0,57.3,0z
	 M55.2,33.2c-0.6,3.6-1.7,7-3.9,9.9c-2.7,3.5-6.2,5.7-10.7,5.9c-3.1,0.2-5.8-0.6-8.2-3.3c-1.5,6.5-2.9,12.7-7.5,17.4
	c-0.2,0-0.4,0-0.6,0c-0.2-1.3-0.3-2.6-0.5-3.9c-0.5-4.5,0.7-8.8,1.8-13.1c0.5-2.1,1-4.2,1.5-6.2c0.6-2.3,0.9-4.5,0.2-6.9
	c-0.7-2.4-0.2-4.9,1.3-7.1c1.5-2.2,3.9-3,6-2.2c1.8,0.8,2.8,2.9,2.2,5.5c-0.6,2.8-1.4,5.5-2.2,8.3c-0.6,2-0.5,3.8,1.2,5.2
	c1.8,1.4,3.9,1.6,5.7,0.4c1.6-1.1,3.1-2.5,4-4.1c2.1-3.5,2.7-7.5,2.4-11.6c-0.4-6-4.5-9.6-11.1-10.1c-8.8-0.7-15.8,6.2-15,15
	c0.1,1.5,1,2.9,1.6,4.3c0.6,1.1,0.5,4.1-0.5,4.8c-0.4,0.3-1.2,0.3-1.7,0.1c-2.1-0.9-3.5-2.6-4.4-4.7c-2.9-6.5-0.8-14.8,5.2-19.8
	c6.3-5.4,16.6-6.6,24-2.8C53.2,17.8,56.7,25.1,55.2,33.2z"/>
</svg>
