<?xml version="1.0" encoding="utf-8"?>
<!-- Generator: Adobe Illustrator 21.1.0, SVG Export Plug-In . SVG Version: 6.00 Build 0)  -->
<!DOCTYPE svg PUBLIC "-//W3C//DTD SVG 1.1//EN" "http://www.w3.org/Graphics/SVG/1.1/DTD/svg11.dtd">
<svg version="1.1" id="Layer_1" xmlns="http://www.w3.org/2000/svg" xmlns:xlink="http://www.w3.org/1999/xlink" x="0px" y="0px"
	 viewBox="0 0 284.8 85.8" style="enable-background:new 0 0 284.8 85.8;" xml:space="preserve">
<style type="text/css">
	.st0{fill:#E31C79;}
</style>
<g>
	<g>
		<path class="st0" d="M176.7,67.1c-16.5,12.2-40.5,18.7-61.2,18.7c-29,0-55-10.7-74.8-28.5c-1.5-1.4-0.2-3.3,1.7-2.2
			C63.7,67.5,90,74.9,117.2,74.9c18.3,0,38.5-3.8,57.1-11.7C177.1,62.1,179.5,65.1,176.7,67.1z"/>
		<path class="st0" d="M183.6,59.3c-2.1-2.7-14-1.3-19.3-0.6c-1.6,0.2-1.9-1.2-0.4-2.2c9.5-6.7,25-4.7,26.8-2.5s-0.5,17.8-9.4,25.2
			c-1.4,1.1-2.7,0.5-2.1-1C181.2,73.1,185.7,62,183.6,59.3z"/>
	</g>
	<path class="st0" d="M164.6,9.4V2.9c0-1,0.7-1.6,1.6-1.6h29c0.9,0,1.7,0.7,1.7,1.6v5.5c0,0.9-0.8,2.1-2.2,4.1l-15,21.4
		c5.6-0.1,11.5,0.7,16.5,3.5c1.1,0.6,1.4,1.6,1.5,2.5v6.9c0,1-1,2.1-2.1,1.5c-8.9-4.7-20.8-5.2-30.6,0.1c-1,0.5-2.1-0.5-2.1-1.5
		v-6.6c0-1,0-2.8,1.1-4.4L181.5,11h-15.1C165.4,11,164.7,10.3,164.6,9.4z"/>
	<path class="st0" d="M58.9,49.8h-8.8c-0.8-0.1-1.5-0.7-1.6-1.5V3.1c0-0.9,0.8-1.6,1.7-1.6h8.2c0.9,0,1.5,0.7,1.6,1.5v5.9h0.2
		c2.1-5.7,6.2-8.4,11.6-8.4c5.5,0,9,2.7,11.4,8.4c2.1-5.7,7-8.4,12.2-8.4c3.7,0,7.7,1.5,10.2,5c2.8,3.8,2.2,9.3,2.2,14.2v28.6
		c0,0.9-0.8,1.6-1.7,1.6h-8.8c-0.9-0.1-1.6-0.8-1.6-1.6v-24c0-1.9,0.2-6.7-0.2-8.5c-0.7-3-2.6-3.9-5.2-3.9c-2.1,0-4.4,1.4-5.3,3.7
		s-0.8,6.1-0.8,8.7v24c0,0.9-0.8,1.6-1.7,1.6h-8.8c-0.9-0.1-1.6-0.8-1.6-1.6v-24c0-5,0.8-12.5-5.4-12.5c-6.3,0-6.1,7.2-6.1,12.5v24
		C60.6,49,59.9,49.8,58.9,49.8z"/>
	<path class="st0" d="M221.9,0.4C235,0.4,242,11.7,242,26c0,13.8-7.8,24.8-20.2,24.8C209,50.7,202,39.5,202,25.5
		C202,11.4,209.1,0.4,221.9,0.4z M222,9.7c-6.5,0-6.9,8.9-6.9,14.4s-0.1,17.3,6.8,17.3c6.8,0,7.2-9.5,7.2-15.3c0-3.8-0.2-8.4-1.3-12
		C226.7,10.9,224.8,9.7,222,9.7z"/>
	<path class="st0" d="M259,49.8h-8.8c-0.9-0.1-1.6-0.8-1.6-1.6V2.9c0.1-0.8,0.8-1.5,1.7-1.5h8.2c0.8,0,1.4,0.6,1.6,1.3v6.9h0.2
		c2.5-6.2,5.9-9.1,12-9.1c3.9,0,7.8,1.4,10.3,5.3c2.3,3.6,2.3,9.7,2.3,14.1v28.5c-0.1,0.8-0.8,1.4-1.7,1.4h-8.8
		c-0.8-0.1-1.5-0.7-1.6-1.4V23.8c0-5,0.6-12.2-5.5-12.2c-2.1,0-4.1,1.4-5.1,3.6c-1.2,2.8-1.4,5.5-1.4,8.6v24.4
		C260.7,49,260,49.8,259,49.8z"/>
	<path class="st0" d="M157.3,41.5c-1.6-2.3-3.3-4.1-3.3-8.2V19.6c0-5.8,0.4-11.2-3.9-15.2c-3.4-3.3-9-4.4-13.3-4.4
		c-8.4,0-17.8,3.1-19.7,13.5c-0.2,1.1,0.6,1.6,1.3,1.8l8.5,0.9c0.8,0,1.3-0.8,1.5-1.6c0.7-3.6,3.7-5.3,7.1-5.3
		c1.8,0,3.8,0.7,4.9,2.3c1.3,1.8,1.1,4.3,1.1,6.4v1.1c-5.1,0.6-11.8,1-16.6,3.1c-5.5,2.4-9.4,7.2-9.4,14.4c0,9.1,5.8,13.7,13.2,13.7
		c6.2,0,9.7-1.5,14.5-6.4c1.6,2.3,2.2,3.5,5.1,5.9c0.7,0.4,1.5,0.3,2.1-0.2c1.8-1.5,5-4.3,6.9-5.8C158,43.3,157.9,42.3,157.3,41.5z
		 M139.9,37.5c-1.4,2.5-3.6,4-6.1,4c-3.4,0-5.4-2.6-5.4-6.4c0-7.5,6.7-8.9,13.1-8.9v1.9C141.5,31.5,141.6,34.4,139.9,37.5z"/>
	<path class="st0" d="M41.7,41.5c-1.6-2.3-3.3-4.1-3.3-8.2V19.6c0-5.8,0.4-11.2-3.9-15.2C31.1,1.1,25.5,0,21.2,0
		C12.8,0,3.4,3.1,1.6,13.6c-0.2,1.1,0.6,1.6,1.3,1.8l8.5,0.9c0.8,0,1.3-0.8,1.5-1.6c0.7-3.6,3.7-5.3,7.1-5.3c1.8,0,3.8,0.6,4.9,2.2
		c1.3,1.8,1.1,4.3,1.1,6.4v1.1c-5.1,0.6-11.8,1-16.6,3.1C3.9,24.6,0,29.4,0,36.6c0,9.2,5.8,13.8,13.2,13.7c6.2,0,9.7-1.5,14.5-6.4
		c1.6,2.3,2.2,3.5,5.1,5.9c0.7,0.4,1.5,0.3,2.1-0.2c1.7-1.5,4.9-4.3,6.8-5.8C42.4,43.3,42.3,42.3,41.7,41.5z M24.4,37.5
		c-1.4,2.5-3.6,4-6.1,4c-3.4,0-5.4-2.6-5.4-6.4c0-7.5,6.7-8.9,13.1-8.9v1.9C26,31.5,26.1,34.4,24.4,37.5z"/>
</g>
</svg>
